<?xml version="1.0" encoding="UTF-8"?>
<svg width="85px" height="100px" viewBox="0 0 85 100" version="1.1" xmlns="http://www.w3.org/2000/svg" xmlns:xlink="http://www.w3.org/1999/xlink">
    <title>Android</title>
    <g id="页面-1" stroke="none" stroke-width="1" fill="none" fill-rule="evenodd">
        <g id="画板" transform="translate(-760.000000, -131.000000)" fill="#00B341" fill-rule="nonzero">
            <g id="android" transform="translate(760.000000, 131.000000)">
                <path d="M84.9873265,38.5539509 C84.9858232,36.3896244 83.7943986,34.3904824 81.861851,33.3095824 C79.9293034,32.2286824 77.5492327,32.2302388 75.6181885,33.3136653 C73.6871442,34.3970918 72.4984981,36.3977901 72.5,38.5621166 L72.5,63.9338019 C72.5,67.2539033 75.3007385,70 78.7647534,70 C82.2034214,70 85,67.2538073 85,63.9338019 L85,38.5210957 L84.9578211,38.5210957 L84.9873265,38.5539509 Z M15.1787122,32.5463694 L15.1953751,73.1288429 C15.1953751,76.8700045 18.1222993,79.8502317 21.7352288,79.8502317 L26.1546046,79.8502317 L26.1546046,93.7158829 C26.1546046,97.1823948 28.8986264,99.9808102 32.2662895,99.9808102 C35.6339527,99.9808102 38.3653068,97.1907175 38.4193882,93.7751327 L38.4193882,79.9095806 L46.7053401,79.9095806 L46.7053401,93.7752318 C46.7105446,96.004413 47.8849705,98.0614381 49.7862228,99.1714457 C51.6874751,100.281453 54.0267084,100.275807 55.922756,99.1566332 C57.8188037,98.0374596 58.9836111,95.974788 58.9784064,93.7456069 L58.9784064,79.8799557 L63.4602438,79.8799557 C67.077266,79.8799557 70,76.8785254 70,73.2091967 L70,32.5 L15,32.5380467 L15.1662394,32.5464685 L15.1787122,32.5463694 Z M55.1543003,22.4952161 C54.2270972,22.5525521 53.3445591,22.0910395 52.8626656,21.2968335 C52.3807722,20.5026274 52.3789975,19.5067088 52.8580573,18.7107904 C53.3371172,17.914872 54.2180049,17.450217 55.1454064,17.5042482 C56.46568,17.5811684 57.4976393,18.6730429 57.5,19.9955443 C57.5023526,21.3180457 56.4742913,22.4135911 55.1543003,22.4952161 M29.9994637,22.4165645 C28.9834997,22.4163351 28.0687184,21.8115415 27.6851222,20.8864732 C27.301526,19.9614049 27.5254151,18.900065 28.2515481,18.2013474 C28.9776811,17.5026298 30.0616246,17.3055146 30.9938598,17.7026579 C31.926095,18.0998013 32.5211931,19.0122083 32.4994222,20.0109926 C32.5018267,20.6741202 32.2340681,21.3105775 31.7559408,21.7782339 C31.2778135,22.2458904 30.6291426,22.5057931 29.954786,22.499902 M55.9569385,9.62569251 L60.203235,1.43175611 C60.4508381,0.976774386 60.2609768,0.452529825 59.8895722,0.196805725 C59.4619163,-0.0151959187 58.9509214,0.154844631 58.7176164,0.586790055 L54.3845621,8.81962333 C50.8027317,7.06469384 46.7255984,6.08973301 42.4586039,6.08973301 C38.1916093,6.08973301 34.1310151,7.02142996 30.5243277,8.70262803 L26.2575266,0.456795279 C26.0311872,0.0293737481 25.5184031,-0.125561188 25.1103311,0.110176393 C24.697627,0.305168558 24.5490652,0.890145054 24.7802259,1.28012939 L29.0305846,9.40459983 C20.653572,13.9414175 15,22.5772346 15,32.5 L70,32.5 C70,22.5772346 64.354746,13.9414175 55.9858578,9.40459983 M6.24792217,32.5 C2.79892982,32.5 -6.25564971e-14,35.2237801 -6.25564971e-14,38.5741458 L-6.25564971e-14,63.9360301 C-6.25564971e-14,67.2850682 2.79822031,70 6.25,70 C9.70177969,70 12.5,67.2850682 12.5,63.9360301 L12.5,38.5824017 C12.5,35.2442279 9.71373502,32.5287037 6.29432694,32.5287037" id="形状"></path>
            </g>
        </g>
    </g>
</svg>