<?xml version="1.0" encoding="UTF-8"?>
<svg width="85px" height="100px" viewBox="0 0 85 100" version="1.1" xmlns="http://www.w3.org/2000/svg" xmlns:xlink="http://www.w3.org/1999/xlink">
    <title>Apple</title>
    <g id="页面-1" stroke="none" stroke-width="1" fill="none" fill-rule="evenodd">
        <g id="画板" transform="translate(-865.000000, -131.000000)" fill="#000000" fill-rule="nonzero">
            <g id="apple" transform="translate(865.000000, 131.000000)">
                <path d="M70.1971444,95.9878454 C64.7533339,101.265049 58.8095897,100.431788 53.0881378,97.9321194 C47.0333594,95.3768774 41.4785147,95.2657312 35.0904098,97.9321194 C27.0913573,101.376083 22.8697068,100.376215 18.0925493,95.9878454 C-9.01502081,68.047127 -5.01566264,25.4968467 25.7582753,23.9415843 C33.2572819,24.3303719 38.4788,28.0522007 42.8671699,28.3854152 C49.4218821,27.0523332 55.6988408,23.2194702 62.6980257,23.719404 C71.0858658,24.386057 77.4183977,27.7188742 81.5844751,33.7180795 C64.2534002,44.1056547 68.3639045,66.9361132 84.2508633,73.3242182 C81.0845413,81.6564851 76.9739249,89.933179 70.1414593,96.0435305 L70.1970324,95.9879574 L70.1971444,95.9878454 Z M42.311551,23.6081457 C41.4784027,11.2208355 51.5326513,0.999867554 63.0867013,-7.10542736e-15 C64.6977608,14.3316964 50.0885351,24.997025 42.311663,23.6081457 L42.311551,23.6081457 Z" id="形状"></path>
            </g>
        </g>
    </g>
</svg>