<?xml version="1.0" encoding="UTF-8"?>
<svg width="100px" height="100px" viewBox="0 0 100 100" version="1.1" xmlns="http://www.w3.org/2000/svg" xmlns:xlink="http://www.w3.org/1999/xlink">
    <title>check</title>
    <g id="页面-1" stroke="none" stroke-width="1" fill="none" fill-rule="evenodd">
        <g id="画板" transform="translate(-640.000000, -131.000000)" fill-rule="nonzero">
            <g id="check2" transform="translate(640.000000, 131.000000)">
                <circle id="椭圆形" fill="#B2ED06" cx="50" cy="50" r="50"></circle>
                <g id="编组" transform="translate(20.454545, 29.545455)">
                    <path d="M51.1331721,2.05458611 C52.5834136,0.391110203 55.1837659,0.149983123 56.9364943,1.5207153 C58.6939576,2.89232564 58.9466811,5.35571494 57.5028819,7.03156853 L25.8847201,43.4063904 C25.1572701,44.2486485 24.088711,44.7630066 22.9335275,44.8232324 L22.6955718,44.8232324 C21.6327161,44.8232324 20.6136817,44.4355822 19.8463389,43.735785 L1.92608692,27.478396 C0.27887278,25.9886597 0.220720758,23.5071735 1.79519982,21.9449922 C3.36322306,20.3862709 5.97695553,20.3354349 7.62257937,21.8253812 L22.3404651,35.1766965 L51.1331721,2.05458611 Z" id="路径" fill="#FFFFFF"></path>
                    <path d="M51.1331721,2.05458611 C52.5834136,0.391110203 55.1837659,0.149983123 56.9364943,1.5207153 C58.6939576,2.89232564 58.9466811,5.35571494 57.5028819,7.03156853 L25.8847201,43.4063904 C25.1572701,44.2486485 24.088711,44.7630066 22.9335275,44.8232324 L22.6955718,44.8232324 C21.6327161,44.8232324 20.6136817,44.4355822 19.8463389,43.735785 L1.92608692,27.478396 C0.27887278,25.9886597 0.220720758,23.5071735 1.79519982,21.9449922 C3.36322306,20.3862709 5.97695553,20.3354349 7.62257937,21.8253812 L22.3404651,35.1766965 L51.1331721,2.05458611 Z" id="路径" stroke="#000000" fill="#000000"></path>
                    <path d="M50.6355933,1.64714124 L22.2840835,34.2607325 L8.06773052,21.3644755 C6.1621905,19.6392009 3.14367813,19.7001521 1.32877629,21.5042875 C-0.500844698,23.3196176 -0.43270493,26.2086108 1.48165698,27.9399549 L19.4011725,44.1966768 C20.2876674,45.0051408 21.4661776,45.4545455 22.6955718,45.4545455 L22.9335275,45.4545455 C24.3020621,45.3841094 25.5395701,44.7895763 26.3842323,43.8116071 L58.0010747,7.43830806 C59.6804469,5.48902848 59.385927,2.62180619 57.3455704,1.0294125 C55.3181411,-0.556151142 52.3150025,-0.279197771 50.6355933,1.64714124 Z M56.9364943,1.5207153 C58.6939576,2.89232564 58.9466811,5.35571494 57.5028819,7.03156853 L25.8847201,43.4063904 C25.1572701,44.2486485 24.088711,44.7630066 22.9335275,44.8232324 L22.6955718,44.8232324 C21.6327161,44.8232324 20.6136817,44.4355822 19.8463389,43.735785 L1.92608692,27.478396 C0.27887278,25.9886597 0.220720758,23.5071735 1.79519982,21.9449922 C3.36322306,20.3862709 5.97695553,20.3354349 7.62257937,21.8253812 L22.3404651,35.1766965 L51.1331721,2.05458611 C52.5834136,0.391110203 55.1837659,0.149983123 56.9364943,1.5207153 Z" id="形状" fill="#FFFFFF"></path>
                </g>
            </g>
        </g>
    </g>
</svg>